<svg xmlns="http://www.w3.org/2000/svg" version="1.1" 
    xmlns:xlink="http://www.w3.org/1999/xlink" 
    xmlns:svgjs="http://svgjs.com/svgjs" viewBox="0 0 24 24" height="24" width="24">
    <circle fill="#fff2e2" cx="12" cy="12" r="12"></circle>
    <g>
        <path d="M 3.868,21.01C-0.623,16.519-0.623,9.237,3.869,4.747s11.773-4.491,16.263,0.001 c4.491,4.491,4.491,11.772,0,16.263c-2.148,2.148-5.63,2.148-7.778,0.001c0,0-0.001-0.001-0.001-0.001l-4.242-4.243 c-0.41-0.37-1.042-0.339-1.412,0.071C6.354,17.22,6.354,17.8,6.7,18.181c0.781,0.782,0.781,2.049-0.001,2.83 C5.916,21.793,4.649,21.792,3.868,21.01z " stroke="#ff9514" fill="none" stroke-width="1" stroke-linecap="round" stroke-linejoin="round"></path>
        <path d="M 17.3,8.989c-0.585,0.586-1.535,0.587-2.121,0.001s-0.587-1.535-0.001-2.121 c0.585-0.586,1.535-0.587,2.121-0.001c0,0,0.001,0.001,0.001,0.001C17.885,7.455,17.885,8.403,17.3,8.989z " stroke="#12e787" fill="rgba(18, 231, 135, 0.25)" stroke-width="1" stroke-linecap="round" stroke-linejoin="round"></path>
        <path d="M 19,11.877 c0.552,0,1,0.448,1,1s-0.448,1-1,1s-1-0.448-1-1S18.448,11.877,19,11.877z " stroke="#ffd300" fill="rgba(255, 211, 0, 0.25)" stroke-width="1" stroke-linecap="round" stroke-linejoin="round"></path>
        <path d="M 14.828,19.243c-0.781-0.781-0.781-2.047,0-2.828 c0.781-0.781,2.047-0.781,2.828,0c0.781,0.781,0.781,2.047,0,2.828c0,0,0,0,0,0C16.875,20.024,15.609,20.024,14.828,19.243z " stroke="#ff2014" fill="rgba(255, 32, 20, 0.25)" stroke-width="1" stroke-linecap="round" stroke-linejoin="round"></path>
        <path d="M 11.292,5.807c0.586,0.585,0.587,1.535,0.001,2.121S9.758,8.515,9.172,7.93S8.585,6.394,9.171,5.808c0,0,0.001-0.001,0.001-0.001 C9.758,5.222,10.706,5.222,11.292,5.807z" stroke="#147eff" fill="rgba(20, 126, 255, 0.25)" stroke-width="1" stroke-linecap="round" stroke-linejoin="round"></path>
    </g>
</svg>