<svg xmlns="http://www.w3.org/2000/svg" version="1.1" 
    xmlns:xlink="http://www.w3.org/1999/xlink" 
    xmlns:svgjs="http://svgjs.com/svgjs" viewBox="0 0 24 24" width="24" height="24">
    <circle fill="#85bcff" cx="10" cy="14" r="9"></circle>
    <g>
        <path d="M 9.543,0.511c1.657,0,3,1.343,3,3c0,1.267-1.756,4.108-2.581,5.372C9.811,9.114,9.502,9.18,9.27,9.029 C9.212,8.991,9.162,8.941,9.124,8.883C8.3,7.618,6.543,4.778,6.543,3.511C6.543,1.854,7.886,0.511,9.543,0.511z " stroke="#e02" fill="#ff9e99" stroke-width="1" stroke-linecap="round" stroke-linejoin="round"></path>

        <path d="M 13.6,22.544 c-4.42,2.274-9.846,0.534-12.12-3.886c-2.208-4.292-0.637-9.561,3.56-11.944 " stroke="#097b48" fill="none" stroke-width="1" stroke-linecap="round" stroke-linejoin="round"></path>

        <path d="M 14.032,6.708c1.539,0.888,2.783,2.209,3.576,3.8 " stroke="#097b48" fill="none" stroke-width="1" stroke-linecap="round" stroke-linejoin="round"></path>
        <path d="M 0.6,13.511h4.115c0.53,0,1.039,0.21,1.414,0.585l1,1c0.781,0.781,0.781,2.047,0.001,2.828c0,0,0,0-0.001,0.001l-1,1 c-0.375,0.375-0.586,0.884-0.586,1.414v2.236 " stroke="#097b48" fill="none" stroke-width="1" stroke-linecap="round" stroke-linejoin="round"></path>

        <path d="M 17.608,10.511h-4.565c-1.105,0-2,0.895-2,2c-0.001,0.321,0.077,0.638,0.226,0.923 " stroke="#097b48" fill="none" stroke-width="1" stroke-linecap="round" stroke-linejoin="round"></path>


        <path d="M 17.137,12.511c2.501,0,4.529,2.028,4.529,4.529s-2.028,4.529-4.529,4.529s-4.529-2.028-4.529-4.529S14.636,12.511,17.137,12.511z " stroke="#0f63c9" fill="none" stroke-width="1" stroke-linecap="round" stroke-linejoin="round"></path>
        <path d="M 23.608,23.511l-3.248-3.248" stroke="#0f63c9" fill="none" stroke-width="1" stroke-linecap="round" stroke-linejoin="round"></path>
    </g>
</svg>