<svg xmlns="http://www.w3.org/2000/svg" version="1.1" 
    xmlns:xlink="http://www.w3.org/1999/xlink" 
    xmlns:svgjs="http://svgjs.com/svgjs" viewBox="0 0 24 24" width="24" height="24">
    <circle fill="#ebd2ff" cx="12" cy="12" r="10"></circle>
    <g>
        <path d="M 16,21.5h1c1.934,0,3.5-1.067,3.5-3v-2.17 " stroke="#8612e6" fill="none" stroke-width="1" stroke-linecap="round" stroke-linejoin="round"></path>
        <path d="M 19.5,8.5c2.209-0.002,4.001,1.788,4.003,3.997 c0.001,1.697-1.069,3.21-2.669,3.775c-0.521,0.184-1.092-0.088-1.277-0.609c-0.038-0.107-0.057-0.22-0.057-0.333V8.5z " stroke="#8612e6" fill="none" stroke-width="1" stroke-linecap="round" stroke-linejoin="round"></path>
        <path d="M 4.5,8.5 c-2.209-0.002-4.001,1.788-4.003,3.997c-0.001,1.697,1.069,3.21,2.669,3.775c0.521,0.184,1.092-0.088,1.277-0.609 C4.481,15.556,4.5,15.444,4.5,15.33V8.5z " stroke="#8612e6" fill="none" stroke-width="1" stroke-linecap="round" stroke-linejoin="round"></path>
        <path d="M 19.5,10V8c0-4.142-3.358-7.5-7.5-7.5S4.5,3.858,4.5,8v2 " stroke="#8612e6" fill="none" stroke-width="1" stroke-linecap="round" stroke-linejoin="round"></path>
        <path d="M 11.5,20.5h4 c0.276,0,0.5,0.224,0.5,0.5v1c0,0.276-0.224,0.5-0.5,0.5h-4c-0.552,0-1-0.448-1-1l0,0C10.5,20.948,10.948,20.5,11.5,20.5z" stroke="#8612e6" fill="none" stroke-width="1" stroke-linecap="round" stroke-linejoin="round"></path>
    </g>
</svg>