<svg id="Layer_1" data-name="Layer 1" xmlns="http://www.w3.org/2000/svg" xmlns:xlink="http://www.w3.org/1999/xlink" viewBox="0 0 92.37 96.89"><defs><style>.cls-1{fill:#fff;}.cls-2{fill:url(#linear-gradient);}</style><linearGradient id="linear-gradient" x1="-238.94" y1="441.46" x2="-238.22" y2="440.73" gradientTransform="matrix(128.01, 0, 0, -97, 30609.86, 42818.17)" gradientUnits="userSpaceOnUse"><stop offset="0" stop-color="#f65"/><stop offset="1" stop-color="#ff192f"/></linearGradient></defs><title>logo-text-under</title><path d="M28.33,95a1.72,1.72,0,0,1-.72-.15,1.84,1.84,0,0,1-1-1,2.07,2.07,0,0,1-.19-.74c0-.2,0-.43,0-.7s0-.5,0-.7a2.13,2.13,0,0,1,.19-.74,1.93,1.93,0,0,1,1-1,1.72,1.72,0,0,1,.72-.15,2.27,2.27,0,0,1,.41,0l.28.09.2.08a.32.32,0,0,0,.16,0,.27.27,0,0,0,.18,0,.23.23,0,0,0,.07-.2V88a.21.21,0,0,1,.2-.2H30a.21.21,0,0,1,.2.2v6.67a.18.18,0,0,1-.06.14.2.2,0,0,1-.14.06h-.16a.19.19,0,0,1-.14-.07l-.11-.1a.2.2,0,0,0-.14-.06.38.38,0,0,0-.19,0l-.21.12a1.6,1.6,0,0,1-.29.11A1.39,1.39,0,0,1,28.33,95Zm.05-.59a1.08,1.08,0,0,0,.56-.13,1,1,0,0,0,.37-.32,1.56,1.56,0,0,0,.21-.43,1.74,1.74,0,0,0,.09-.43c0-.2,0-.44,0-.7s0-.49,0-.7a2,2,0,0,0-.09-.43,1.65,1.65,0,0,0-.21-.42,1.08,1.08,0,0,0-.93-.46,1.41,1.41,0,0,0-.61.13,1.2,1.2,0,0,0-.4.33,1.24,1.24,0,0,0-.23.42,2.89,2.89,0,0,0-.1.43c0,.21,0,.44,0,.7a7,7,0,0,0,0,.7,2.41,2.41,0,0,0,.1.43,1.19,1.19,0,0,0,.23.43,1.07,1.07,0,0,0,.4.32A1.23,1.23,0,0,0,28.38,94.36Z" transform="translate(-17.81 -0.06)"/><path d="M33.89,90.3a1.62,1.62,0,0,0-.44.07,1.16,1.16,0,0,0-.37.18,1.1,1.1,0,0,0-.26.27.65.65,0,0,0-.1.36c0,.09,0,.14-.08.15a.39.39,0,0,1-.15,0h-.14a.18.18,0,0,1-.2-.2,1.23,1.23,0,0,1,.15-.61,1.36,1.36,0,0,1,.4-.43,1.82,1.82,0,0,1,.56-.27,2.28,2.28,0,0,1,.63-.09,2.63,2.63,0,0,1,.7.1,1.76,1.76,0,0,1,.57.31,1.65,1.65,0,0,1,.39.51,1.88,1.88,0,0,1,.14.74v3.24a.18.18,0,0,1-.06.14.2.2,0,0,1-.14.06H35.4a.14.14,0,0,1-.14-.07.54.54,0,0,1-.07-.13.13.13,0,0,0-.13-.08.38.38,0,0,0-.18.06,1.71,1.71,0,0,1-.27.13,2.64,2.64,0,0,1-.37.13,1.9,1.9,0,0,1-.5.06,2.17,2.17,0,0,1-.8-.13,1.49,1.49,0,0,1-.57-.35A1.27,1.27,0,0,1,32,94a1.74,1.74,0,0,1-.11-.61,1.62,1.62,0,0,1,.11-.58,1.23,1.23,0,0,1,.32-.46,1.56,1.56,0,0,1,.52-.31,2.19,2.19,0,0,1,.7-.11H35c.07,0,.1,0,.1-.1V91.4a1,1,0,0,0-.34-.79A1.28,1.28,0,0,0,33.89,90.3Zm-.32,2.14a1.25,1.25,0,0,0-.74.23.79.79,0,0,0-.32.67,1,1,0,0,0,.1.47.82.82,0,0,0,.26.32,1,1,0,0,0,.37.2,1.63,1.63,0,0,0,.45.06,1.57,1.57,0,0,0,1.07-.32,1.14,1.14,0,0,0,.37-.93v-.6a.09.09,0,0,0-.1-.1Z" transform="translate(-17.81 -0.06)"/><path d="M39,93.25a1.1,1.1,0,0,0,.28.82.92.92,0,0,0,.67.28.8.8,0,0,0,.67-.29,1,1,0,0,0,.25-.71.21.21,0,0,1,.2-.2h.21a.21.21,0,0,1,.2.2,1.59,1.59,0,0,1-.12.62,1.34,1.34,0,0,1-.32.51,1.3,1.3,0,0,1-.48.35,1.54,1.54,0,0,1-.61.12,1.59,1.59,0,0,1-.62-.12,1.42,1.42,0,0,1-.49-.35,1.64,1.64,0,0,1-.32-.51,1.59,1.59,0,0,1-.12-.62V90.59a.09.09,0,0,0-.1-.1H37.14a.2.2,0,0,1-.14-.06.18.18,0,0,1-.06-.14V90.1a.21.21,0,0,1,.2-.2h1.11c.07,0,.1,0,.1-.1V88.25a.21.21,0,0,1,.2-.2h.2a.21.21,0,0,1,.2.2V89.8c0,.07,0,.1.1.1h1.66a.21.21,0,0,1,.2.2v.19a.18.18,0,0,1-.06.14.2.2,0,0,1-.14.06H39.05a.09.09,0,0,0-.1.1Z" transform="translate(-17.81 -0.06)"/><path d="M44.89,90.3a1.62,1.62,0,0,0-.44.07,1.16,1.16,0,0,0-.37.18,1.1,1.1,0,0,0-.26.27.65.65,0,0,0-.1.36c0,.09,0,.14-.08.15a.39.39,0,0,1-.15,0h-.14a.18.18,0,0,1-.2-.2,1.23,1.23,0,0,1,.15-.61,1.36,1.36,0,0,1,.4-.43,1.82,1.82,0,0,1,.56-.27,2.28,2.28,0,0,1,.63-.09,2.5,2.5,0,0,1,.69.1,1.57,1.57,0,0,1,.57.31,1.39,1.39,0,0,1,.39.51,1.72,1.72,0,0,1,.15.74v3.24a.18.18,0,0,1-.06.14.2.2,0,0,1-.14.06H46.4a.14.14,0,0,1-.14-.07.54.54,0,0,1-.07-.13.13.13,0,0,0-.13-.08.38.38,0,0,0-.18.06l-.27.13a2.39,2.39,0,0,1-.38.13,1.77,1.77,0,0,1-.49.06,2.22,2.22,0,0,1-.81-.13,1.49,1.49,0,0,1-.57-.35A1.25,1.25,0,0,1,43,94a1.74,1.74,0,0,1-.11-.61,1.62,1.62,0,0,1,.11-.58,1.23,1.23,0,0,1,.32-.46,1.56,1.56,0,0,1,.52-.31,2.19,2.19,0,0,1,.7-.11H46a.09.09,0,0,0,.1-.1V91.4a1,1,0,0,0-.34-.79A1.28,1.28,0,0,0,44.89,90.3Zm-.32,2.14a1.25,1.25,0,0,0-.74.23.79.79,0,0,0-.32.67,1.13,1.13,0,0,0,.09.47.92.92,0,0,0,.26.32,1.07,1.07,0,0,0,.38.2,1.63,1.63,0,0,0,.45.06,1.54,1.54,0,0,0,1.06-.32,1.15,1.15,0,0,0,.38-.93v-.6a.09.09,0,0,0-.1-.1Z" transform="translate(-17.81 -0.06)"/><path d="M48.7,94.85a.21.21,0,0,1-.2-.2V88a.2.2,0,0,1,.06-.14.18.18,0,0,1,.14-.06h.19a.21.21,0,0,1,.2.2v1.81a.24.24,0,0,0,0,.14.19.19,0,0,0,.17.07.37.37,0,0,0,.16,0l.23-.08.29-.09a2.13,2.13,0,0,1,.39,0,1.8,1.8,0,0,1,.71.14,1.69,1.69,0,0,1,.55.38,1.71,1.71,0,0,1,.35.56,1.65,1.65,0,0,1,.13.66v3.16a.18.18,0,0,1-.06.14.2.2,0,0,1-.14.06h-.19a.21.21,0,0,1-.2-.2V91.49a1.12,1.12,0,0,0-.34-.83,1.25,1.25,0,0,0-.88-.32,1.35,1.35,0,0,0-.5.09,1.1,1.1,0,0,0-.38.23,1.06,1.06,0,0,0-.34.78v3.21a.18.18,0,0,1-.06.14.2.2,0,0,1-.14.06Z" transform="translate(-17.81 -0.06)"/><path d="M56.9,95.2a2.28,2.28,0,0,1-.12.78,1.58,1.58,0,0,1-.33.55,1.38,1.38,0,0,1-.5.32,1.74,1.74,0,0,1-.61.1,1.59,1.59,0,0,1-.62-.12,1.41,1.41,0,0,1-.51-.35,1.54,1.54,0,0,1-.35-.51,1.59,1.59,0,0,1-.12-.62.2.2,0,0,1,.06-.14.2.2,0,0,1,.15-.06h.21a.21.21,0,0,1,.2.2.94.94,0,0,0,.07.37.87.87,0,0,0,.2.31.95.95,0,0,0,.71.3.93.93,0,0,0,.69-.25,1,1,0,0,0,.26-.76V90.55a.09.09,0,0,0-.1-.1H54.7a.21.21,0,0,1-.2-.2v-.2a.2.2,0,0,1,.06-.14.18.18,0,0,1,.14-.06h2a.21.21,0,0,1,.2.2Zm0-6.73a.14.14,0,0,1-.16.16h-.52a.14.14,0,0,1-.16-.16v-.53a.15.15,0,0,1,.16-.16h.52a.16.16,0,0,1,.11,0,.18.18,0,0,1,0,.11Z" transform="translate(-17.81 -0.06)"/><path d="M59.88,92.69a2.37,2.37,0,0,0,.08.67,1.56,1.56,0,0,0,.27.53,1.19,1.19,0,0,0,.45.35,1.67,1.67,0,0,0,.67.12,1.37,1.37,0,0,0,.51-.08,1.22,1.22,0,0,0,.39-.21,1.27,1.27,0,0,0,.27-.3,1.62,1.62,0,0,0,.17-.35.22.22,0,0,1,.09-.13.33.33,0,0,1,.14,0h.2a.21.21,0,0,1,.13,0,.15.15,0,0,1,0,.15,2,2,0,0,1-.21.61,1.71,1.71,0,0,1-.42.47,1.75,1.75,0,0,1-.59.31,2.09,2.09,0,0,1-.72.11,2.14,2.14,0,0,1-.82-.15,2.05,2.05,0,0,1-.63-.4,1.75,1.75,0,0,1-.42-.61,2.29,2.29,0,0,1-.18-.74c0-.2,0-.43,0-.7s0-.5,0-.7a2.36,2.36,0,0,1,.18-.74,1.81,1.81,0,0,1,.42-.6,2.08,2.08,0,0,1,.63-.41,2.14,2.14,0,0,1,.82-.15,2,2,0,0,1,.78.16,2.18,2.18,0,0,1,.64.43,2,2,0,0,1,.42.64,2,2,0,0,1,.16.77v.64a.18.18,0,0,1-.06.14.2.2,0,0,1-.14.06H60A.09.09,0,0,0,59.88,92.69Zm0-.76c0,.07,0,.1.1.1h2.7a.09.09,0,0,0,.1-.1,2,2,0,0,0-.11-.67,1.57,1.57,0,0,0-.31-.5,1.25,1.25,0,0,0-.45-.31,1.56,1.56,0,0,0-.57-.11,1.42,1.42,0,0,0-1.07.41A1.66,1.66,0,0,0,59.9,91.93Z" transform="translate(-17.81 -0.06)"/><path d="M65.21,88.38a.18.18,0,0,1-.14-.06.19.19,0,0,1-.07-.14V88a.21.21,0,0,1,.07-.14.18.18,0,0,1,.14-.06h1.71a.18.18,0,0,1,.13.06.21.21,0,0,1,.07.14v6.17c0,.07,0,.1.09.1h1.27a.22.22,0,0,1,.15.06.19.19,0,0,1,.05.14v.2a.17.17,0,0,1-.05.14.22.22,0,0,1-.15.06H65a.18.18,0,0,1-.13-.06.18.18,0,0,1-.06-.14v-.2a.2.2,0,0,1,.06-.14.18.18,0,0,1,.13-.06h1.4a.11.11,0,0,0,.08,0,.1.1,0,0,0,0-.08V88.48c0-.06,0-.1-.09-.1Z" transform="translate(-17.81 -0.06)"/><path d="M72.28,89.75a1.77,1.77,0,0,1,.73.15,1.85,1.85,0,0,1,.58.41,1.94,1.94,0,0,1,.41.6,2.36,2.36,0,0,1,.18.74c0,.2,0,.44,0,.7s0,.5,0,.7a2.29,2.29,0,0,1-.18.74,1.87,1.87,0,0,1-.41.61,1.82,1.82,0,0,1-.58.4,1.77,1.77,0,0,1-.73.15,1.68,1.68,0,0,1-.41,0,1.71,1.71,0,0,1-.29-.08l-.21-.09a.53.53,0,0,0-.16,0,.23.23,0,0,0-.16.06A.24.24,0,0,0,71,95v1.7a.21.21,0,0,1-.2.2h-.19a.2.2,0,0,1-.14-.06.18.18,0,0,1-.06-.14v-6.6a.21.21,0,0,1,.2-.2h.16a.21.21,0,0,1,.14.07L71,90a.19.19,0,0,0,.14,0,.33.33,0,0,0,.2,0l.2-.11.29-.12A1.87,1.87,0,0,1,72.28,89.75Zm0,.59a1.22,1.22,0,0,0-.56.13,1.31,1.31,0,0,0-.37.33,1.65,1.65,0,0,0-.21.42c0,.16-.07.3-.09.43s0,.44,0,.7,0,.5,0,.7a3.67,3.67,0,0,0,.09.43,1.56,1.56,0,0,0,.21.43,1.14,1.14,0,0,0,.37.32,1.1,1.1,0,0,0,.56.13,1.25,1.25,0,0,0,.61-.13,1.11,1.11,0,0,0,.41-.32,1.37,1.37,0,0,0,.23-.43,1.74,1.74,0,0,0,.09-.43,4.9,4.9,0,0,0,0-.7,5,5,0,0,0,0-.7,2,2,0,0,0-.09-.43,1.44,1.44,0,0,0-.23-.42,1.31,1.31,0,0,0-.4-.33A1.39,1.39,0,0,0,72.23,90.34Z" transform="translate(-17.81 -0.06)"/><path d="M76.37,92.69a2.36,2.36,0,0,0,.09.67,1.38,1.38,0,0,0,.26.53,1.23,1.23,0,0,0,.46.35,1.62,1.62,0,0,0,.66.12,1.39,1.39,0,0,0,.52-.08,1.22,1.22,0,0,0,.39-.21,1.27,1.27,0,0,0,.27-.3,1.58,1.58,0,0,0,.16-.35.19.19,0,0,1,.1-.13.33.33,0,0,1,.13,0h.2a.22.22,0,0,1,.14,0,.15.15,0,0,1,0,.15,1.58,1.58,0,0,1-.21.61,1.53,1.53,0,0,1-.41.47,1.75,1.75,0,0,1-.59.31,2.19,2.19,0,0,1-.73.11A2.09,2.09,0,0,1,77,94.8a2.05,2.05,0,0,1-.63-.4,1.75,1.75,0,0,1-.42-.61,2.31,2.31,0,0,1-.19-.74c0-.2,0-.43,0-.7s0-.5,0-.7a2.37,2.37,0,0,1,.19-.74,1.81,1.81,0,0,1,.42-.6,2,2,0,0,1,1.44-.56,2.1,2.1,0,0,1,.79.16,2.13,2.13,0,0,1,.63.43,2.18,2.18,0,0,1,.43.64,2,2,0,0,1,.15.77v.64a.21.21,0,0,1-.2.2H76.47A.09.09,0,0,0,76.37,92.69Zm0-.76a.09.09,0,0,0,.1.1h2.7c.07,0,.1,0,.1-.1a1.78,1.78,0,0,0-.11-.67,1.39,1.39,0,0,0-.3-.5,1.21,1.21,0,0,0-.46-.31,1.48,1.48,0,0,0-.57-.11,1.42,1.42,0,0,0-1.06.41A1.62,1.62,0,0,0,76.39,91.93Z" transform="translate(-17.81 -0.06)"/><path d="M82.18,90.08a.38.38,0,0,0,.21,0l.22-.11.3-.12a1.89,1.89,0,0,1,.46,0,2.36,2.36,0,0,1,.72.11,1.78,1.78,0,0,1,.57.33,1.53,1.53,0,0,1,.37.55,2,2,0,0,1,.13.75v3.16a.18.18,0,0,1-.06.14.2.2,0,0,1-.14.06h-.19a.2.2,0,0,1-.14-.06.18.18,0,0,1-.06-.14V91.49a1,1,0,0,0-.36-.89,1.57,1.57,0,0,0-.91-.26,1.39,1.39,0,0,0-.5.09,1.31,1.31,0,0,0-.4.23,1,1,0,0,0-.27.35.94.94,0,0,0-.1.43v3.21a.21.21,0,0,1-.2.2h-.19a.2.2,0,0,1-.14-.06.18.18,0,0,1-.06-.14v-4.6a.21.21,0,0,1,.2-.2h.16a.21.21,0,0,1,.14.07L82,90A.17.17,0,0,0,82.18,90.08Z" transform="translate(-17.81 -0.06)"/><path d="M89.35,94.65a.18.18,0,0,1-.06.14.2.2,0,0,1-.14.06h-.7a.2.2,0,0,1-.14-.06.18.18,0,0,1-.06-.14V94a.21.21,0,0,1,.2-.2h.7a.21.21,0,0,1,.2.2Z" transform="translate(-17.81 -0.06)"/><path d="M93.18,90.08a.35.35,0,0,0,.2,0l.22-.11.31-.12a1.89,1.89,0,0,1,.46,0,2.36,2.36,0,0,1,.72.11,1.78,1.78,0,0,1,.57.33,1.53,1.53,0,0,1,.37.55,2,2,0,0,1,.13.75v3.16a.18.18,0,0,1-.06.14.2.2,0,0,1-.14.06h-.19a.2.2,0,0,1-.14-.06.18.18,0,0,1-.06-.14V91.49a1,1,0,0,0-.37-.89,1.52,1.52,0,0,0-.9-.26,1.35,1.35,0,0,0-.5.09,1.5,1.5,0,0,0-.41.23,1.1,1.1,0,0,0-.26.35.94.94,0,0,0-.1.43v3.21a.18.18,0,0,1-.06.14.2.2,0,0,1-.14.06h-.19a.2.2,0,0,1-.14-.06.18.18,0,0,1-.06-.14v-4.6a.21.21,0,0,1,.2-.2h.16a.23.23,0,0,1,.14.07L93,90A.16.16,0,0,0,93.18,90.08Z" transform="translate(-17.81 -0.06)"/><path d="M99.8,89.75a2.09,2.09,0,0,1,.81.15,2,2,0,0,1,.62.41,1.94,1.94,0,0,1,.41.6,2.36,2.36,0,0,1,.18.74c0,.2,0,.44,0,.7s0,.5,0,.7a2.29,2.29,0,0,1-.18.74,1.87,1.87,0,0,1-.41.61,2,2,0,0,1-.62.4,2.26,2.26,0,0,1-1.62,0,1.89,1.89,0,0,1-.62-.4,1.87,1.87,0,0,1-.41-.61,2.29,2.29,0,0,1-.18-.74c0-.2,0-.43,0-.7s0-.5,0-.7a2.36,2.36,0,0,1,.18-.74,1.94,1.94,0,0,1,.41-.6A1.92,1.92,0,0,1,99,89.9,2.09,2.09,0,0,1,99.8,89.75Zm0,4.61a1.36,1.36,0,0,0,.63-.13,1.18,1.18,0,0,0,.43-.32,1.43,1.43,0,0,0,.25-.43,2.41,2.41,0,0,0,.1-.43c0-.2,0-.44,0-.7s0-.49,0-.7a2.89,2.89,0,0,0-.1-.43,1.51,1.51,0,0,0-.25-.42,1.33,1.33,0,0,0-.43-.33,1.5,1.5,0,0,0-.63-.13,1.48,1.48,0,0,0-.64.13,1.45,1.45,0,0,0-.43.33,1.27,1.27,0,0,0-.24.42,2,2,0,0,0-.1.43c0,.21,0,.44,0,.7s0,.5,0,.7a1.78,1.78,0,0,0,.1.43,1.22,1.22,0,0,0,.24.43,1.27,1.27,0,0,0,.43.32A1.35,1.35,0,0,0,99.8,94.36Z" transform="translate(-17.81 -0.06)"/><rect class="cls-1" x="24.2" y="16.03" width="43.96" height="22.61"/><path class="cls-2" d="M110.18,4.85v50H17.81v-50c0-4.91,5-4.79,5-4.79h82.26C110.63.06,110.18,4.85,110.18,4.85ZM52.81,58.1h21L78,68s.84,2.09-1.18,2.09h-27c-2,0-1.2-2.09-1.2-2.09ZM42,38.71h8.35c3.7,0,6.58-1,8.64-3S62.07,31,62.06,27.4,61,21.06,59,19.09s-4.93-3-8.63-3H42V38.7Zm4.14-3.37V19.47h4q7.82,0,7.81,7.9T50.1,35.31h-4Zm35.77-9.79H70.32V16.1H66.25V38.68h4.07V28.87H81.93v9.81h4V16.1h-4v9.45Z" transform="translate(-17.81 -0.06)"/></svg>