<?xml version="1.0" standalone="no"?>
<!DOCTYPE svg PUBLIC "-//W3C//DTD SVG 20010904//EN"
 "http://www.w3.org/TR/2001/REC-SVG-20010904/DTD/svg10.dtd">
<svg version="1.0" xmlns="http://www.w3.org/2000/svg"
 width="1024.000000pt" height="1024.000000pt" viewBox="0 0 1024.000000 1024.000000"
 preserveAspectRatio="xMidYMid meet">
<metadata>
Created by potrace 1.11, written by Peter Selinger 2001-2013
</metadata>
<g transform="translate(0.000000,1024.000000) scale(0.100000,-0.100000)"
fill="#000000" stroke="none">
<path d="M445 8989 c-16 -4 -45 -11 -64 -14 -105 -17 -258 -126 -313 -225 -26
-46 -62 -150 -51 -150 3 0 0 -6 -6 -13 -8 -10 -11 -795 -11 -2835 l0 -2822
5120 0 5120 0 -2 2843 c-3 2354 -5 2848 -16 2877 -76 196 -187 293 -382 334
-67 14 -558 15 -4720 15 -2682 -1 -4658 -4 -4675 -10z m5375 -1774 c1 -5 2
-242 3 -525 l2 -515 638 0 c564 -1 638 1 641 15 3 8 5 242 5 518 0 277 2 506
5 510 9 8 425 6 434 -2 4 -4 7 -568 7 -1252 0 -1242 0 -1244 -20 -1244 -39 -1
-361 -2 -395 -1 l-35 1 0 543 0 542 -642 1 -642 0 1 -539 c0 -296 -3 -541 -6
-544 -4 -4 -388 -7 -438 -4 -5 1 -9 563 -10 1251 l-3 1249 35 3 c91 8 420 2
420 -7z m-1975 -8 c39 -5 50 -7 150 -27 131 -27 308 -97 401 -159 25 -17 47
-31 50 -31 18 0 244 -226 244 -244 0 -3 13 -24 29 -48 16 -24 44 -74 61 -113
46 -98 51 -109 54 -125 1 -8 9 -35 16 -60 7 -25 14 -54 16 -65 2 -11 6 -31 9
-45 32 -133 37 -449 10 -600 -5 -29 -12 -62 -21 -105 -3 -16 -17 -63 -31 -103
-51 -150 -110 -257 -204 -365 -114 -133 -246 -224 -444 -307 -66 -28 -232 -68
-315 -76 -25 -2 -61 -7 -80 -10 -19 -2 -41 -5 -47 -4 -7 0 -19 0 -25 0 -7 0
-240 -1 -516 -3 -440 -2 -505 0 -511 13 -5 11 -7 2439 -2 2483 1 9 1085 3
1156 -6z"/>
<path d="M3143 6115 c1 -404 -2 -735 -6 -735 -5 0 -5 -5 -1 -12 4 -6 7 -71 6
-143 l-1 -132 290 1 c159 0 289 3 289 6 0 4 12 5 28 4 21 -1 128 22 227 49 6
2 20 8 32 15 12 7 29 12 37 12 9 0 16 4 16 9 0 5 11 12 25 15 14 4 25 11 25
16 0 6 6 10 13 10 23 0 153 131 190 190 89 144 130 322 130 560 -1 152 -14
255 -49 365 -22 70 -80 185 -110 220 -15 17 -36 42 -48 56 -33 39 -112 97
-175 128 -70 35 -188 74 -200 67 -5 -4 -11 -2 -13 3 -5 16 -102 22 -410 27
l-296 5 1 -736z"/>
<path d="M3882 2561 c-4 -3 -25 -49 -47 -101 -21 -52 -55 -132 -76 -177 -21
-45 -39 -90 -41 -100 -2 -10 -5 -20 -8 -23 -3 -3 -14 -25 -25 -50 -24 -59 -47
-111 -79 -184 -14 -32 -26 -65 -26 -72 0 -8 -4 -14 -8 -14 -5 0 -9 -6 -9 -12
0 -12 -14 -47 -60 -148 -42 -91 -92 -224 -98 -258 -16 -88 7 -141 72 -168 46
-20 3097 -21 3140 -1 51 22 74 58 76 115 1 47 -9 82 -58 197 -134 315 -169
397 -186 432 -10 24 -19 45 -19 48 0 2 -13 34 -30 70 -16 36 -30 68 -30 70 0
5 -15 40 -66 153 -13 29 -24 56 -24 60 0 4 -9 24 -19 44 -11 19 -17 39 -14 42
4 3 1 6 -5 6 -7 0 -12 8 -12 18 -1 9 -6 26 -13 38 l-12 20 -1158 0 c-636 0
-1161 -2 -1165 -5z"/>
</g>
</svg>
