<svg xmlns="http://www.w3.org/2000/svg" version="1.1" 
    xmlns:xlink="http://www.w3.org/1999/xlink" 
    xmlns:svgjs="http://svgjs.com/svgjs" viewBox="0 0 64 64" height="64" width="64">
    <g transform="matrix(2,0,0,2,0,0)">
        <path d="M 0.5,23.5c0.013-1.143,0.251-2.271,0.7-3.322c0.49-0.981,2.539-1.661,5.111-2.613 c0.695-0.258,0.581-2.074,0.273-2.413c-0.992-1.075-1.479-2.522-1.336-3.978C5.071,9.33,6.422,7.692,8.265,7.514 C8.343,7.507,8.422,7.502,8.5,7.5c1.852,0.046,3.316,1.584,3.27,3.436c-0.002,0.08-0.007,0.159-0.014,0.238 c0.143,1.456-0.344,2.903-1.336,3.978c-0.308,0.339-0.422,2.155,0.273,2.413c2.572,0.952,4.621,1.632,5.111,2.613 c0.449,1.051,0.687,2.179,0.7,3.322L0.5,23.5z " stroke="currentColor" fill="none" stroke-width="1" stroke-linecap="round" stroke-linejoin="round"></path>
        <path d="M 13.979,12.034c0.49,0.191,1,0.326,1.521,0.4c0,0.57,0,2.57,0,3.07 c0.5-0.5,3.5-3,4-3.461c2.354-0.836,3.946-3.041,4-5.539C23.359,3.053,20.451,0.368,17,0.5c-3.212-0.105-5.993,2.214-6.467,5.393 " stroke="#147eff" fill="none" stroke-width="1" stroke-linecap="round" stroke-linejoin="round"></path>
        <path d="M 14.25,6.25c0.138-0.001,0.249,0.11,0.25,0.248c0,0.001,0,0.001,0,0.002l0,0c0.001,0.138-0.11,0.249-0.248,0.25 c-0.001,0-0.001,0-0.002,0l0,0C14.112,6.75,14,6.638,14,6.5l0,0C14,6.362,14.112,6.25,14.25,6.25 " stroke="#147eff" fill="none" stroke-width="1" stroke-linecap="round" stroke-linejoin="round"></path>
        <path d="M 14.25,6.25L14.25,6.25 " stroke="#147eff" fill="none" stroke-width="1" stroke-linecap="round" stroke-linejoin="round"></path>
        <path d="M 17,6.25 c0.138,0,0.25,0.112,0.25,0.25l0,0c0,0.138-0.112,0.25-0.25,0.25l0,0c-0.138,0-0.25-0.112-0.25-0.25l0,0 C16.75,6.362,16.862,6.25,17,6.25 " stroke="#147eff" fill="none" stroke-width="1" stroke-linecap="round" stroke-linejoin="round"></path>
        <path d="M 17,6.25L17,6.25 " stroke="#147eff" fill="none" stroke-width="1" stroke-linecap="round" stroke-linejoin="round"></path>
        <path d="M 19.75,6.25C19.888,6.25,20,6.362,20,6.5l0,0c0,0.138-0.112,0.25-0.25,0.25l0,0 c-0.138,0-0.25-0.112-0.25-0.25l0,0C19.5,6.362,19.612,6.25,19.75,6.25 " stroke="#147eff" fill="none" stroke-width="1" stroke-linecap="round" stroke-linejoin="round"></path>
        <path d="M 19.75,6.25L19.75,6.25" stroke="#147eff" fill="none" stroke-width="1" stroke-linecap="round" stroke-linejoin="round"></path>
    </g>
</svg>