<svg xmlns="http://www.w3.org/2000/svg" version="1.1" 
    xmlns:xlink="http://www.w3.org/1999/xlink" 
    xmlns:svgjs="http://svgjs.com/svgjs" viewBox="0 0 64 64" height="64" width="64">
    <g transform="matrix(2,0,0,2,0,0)">
        <path d="M 18.25,2.251c-1.061,1.061-3.04,0.96-4.75-0.75L12,3l8,8l3.5-3.5L18.25,2.251z " stroke="currentColor" fill="none" stroke-width="1" stroke-linecap="round" stroke-linejoin="round"></path>
        <path d="M 11.939,9.94L8.146,6.148 c0.91-2.013,0.016-4.383-1.997-5.293c-1.047-0.474-2.248-0.474-3.295,0L5,3v2H3L0.854,2.855c-0.91,2.013-0.016,4.383,1.997,5.293 c1.047,0.474,2.248,0.474,3.295,0l3.793,3.792 " stroke="currentColor" fill="none" stroke-width="1" stroke-linecap="round" stroke-linejoin="round"></path>
        <path d="M 12.061,14.062l3.793,3.793c-0.91,2.013-0.016,4.383,1.997,5.293 c1.047,0.474,2.248,0.474,3.295,0L19,21v-2h2l2.146,2.147c0.91-2.013,0.016-4.383-1.997-5.293c-1.047-0.474-2.248-0.474-3.295,0 l-3.793-3.793 " stroke="currentColor" fill="none" stroke-width="1" stroke-linecap="round" stroke-linejoin="round"></path>
        <path d="M 15.439,6.44l-14.5,14.5c-0.586,0.586-0.586,1.536,0,2.122s1.536,0.586,2.122,0l0,0l14.5-14.5" stroke="currentColor" fill="none" stroke-width="1" stroke-linecap="round" stroke-linejoin="round"></path>
    </g>
</svg>